DataType=double
version=3
OpenSimVersion=4.5-2024-01-10-34fd6af
endheader
time	ground_force_2_vx	ground_force_2_vy	ground_force_2_vz	ground_moment_2_mx	ground_moment_2_my	ground_moment_2_mz	ground_force_2_px	ground_force_2_py	ground_force_2_pz	ground_force_1_vx	ground_force_1_vy	ground_force_1_vz	ground_moment_1_mx	ground_moment_1_my	ground_moment_1_mz	ground_force_1_px	ground_force_1_py	ground_force_1_pz
2.495	-56.67204618505898	620.872951429633	-45.59806307638542	5.103250602153297	1.367951966293305	11.15823418931408	0.8393082596937589	0.05368940578400443	0.5721226581509309	0.172509282607091	-1.469094830719484	0.09950123926690679	0.03917239938060013	-0.004064255221399471	0.02423163743559598	0.6777890219530674	0.05368940578400443	0.4178073914607375
2.5	-54.11346968624692	612.7652424495648	-44.50852468216436	4.976656633902403	1.582963659735728	12.9829863153997	0.8334242296212409	0.05368940578400443	0.5720508223667782	0.2484229773450098	-1.099411561837428	0.09322919968009202	0.02786142542880188	-0.001240040419485944	0.03462073832783441	0.6886379238222201	0.05368940578400443	0.4176635936544758
2.505	-51.63148543235301	605.5873200950351	-43.40376737756718	4.86578105279864	1.778343303132232	14.67206587205362	0.8275521952767354	0.05368940578400443	0.5719721283875056	0.3027428298174939	-0.7869706922986666	0.08477027044565588	0.01843059548729253	0.0009450446814829316	0.04167724057995115	0.6996325366469349	0.05368940578400443	0.4174425084636891
2.51	-49.22565762136112	599.3684952578171	-42.29209334824603	4.771040400171424	1.953548323589114	16.22892603924589	0.8216919128613378	0.05368940578400443	0.5718867351279667	0.3385321855816433	-0.5256785980124619	0.07481308396648245	0.01071107467564558	0.002558184868067304	0.04571559077529075	0.7107682584761322	0.05368940578400443	0.4171414126972536
2.515	-46.894097308023	594.1239705109585	-41.18171826910463	4.692528285556043	2.108395264369497	17.6582502400448	0.8158430118224207	0.05368940578400443	0.5717949769432378	0.3586780424823026	-0.3090573960782308	0.06394082952171942	0.004518550095704343	0.003668781773864538	0.04705128716339013	0.7220410718694644	0.05368940578400443	0.416758231753706
2.52	-44.63354735450942	589.8555940289812	-40.08068708013444	4.630036394073167	2.243035303342381	18.96575929004672	0.8100050163548834	0.05368940578400443	0.5716973585867619	0.3658387203877894	-0.1305671180489298	0.05264148631657761	-0.0003368640203014195	0.004346155442577049	0.04599474794119052	0.7334472639472792	0.05368940578400443	0.4162916323609639
2.525	-42.43946240148887	586.5528130234277	-38.99679207487964	4.583084066433764	2.35792362231838	20.15801674922783	0.8041773677471801	0.05368940578400443	0.5715945462448855	0.362410586225027	0.01613260871175726	0.04131949066299256	-0.004042731077475104	0.004657880487879851	0.0428483074601369	0.7449831245718406	0.05368940578400443	0.4157410966787965
2.53	-40.30608842894888	584.1937961490663	-37.93749898862883	4.550955233350126	2.453783773329728	21.24223779503988	0.7983594471931994	0.05368940578400443	0.5714873548814102	0.3505105464038857	0.1369729184590938	0.03030830681184682	-0.00677816753468119	0.004668679244587748	0.03790596321260298	0.7566446292212542	0.05368940578400443	0.4151069758768823
2.535	-38.22654678505162	582.7466910348754	-36.90988489627642	4.532741286807271	2.531568230306656	22.22610603077601	0.7925505986735151	0.05368940578400443	0.5713767322353079	0.3319713630715858	0.2373098127096682	0.01988343657604119	-0.008709250235414467	0.004439793371058154	0.03145551043540162	0.7684271135277903	0.05368940578400443	0.4143905220826295
2.54	-36.19292715753241	582.1709807787871	-35.92058970656558	4.527388337256734	2.592416321799546	23.11760168091349	0.7867501515024571	0.05368940578400443	0.5712637399074239	0.3083472206040216	0.3217941473433257	0.01027545180755496	-0.009985725278878865	0.004028755688762153	0.0237827162009363	0.7803249468333696	0.05368940578400443	0.4135938983576949
2.545	-34.19639293119299	582.4189020324563	-34.97578113210204	4.533747238367319	2.637610721094673	23.92484367504626	0.7809574421409583	0.05368940578400443	0.5711495320455214	0.2809273472116888	0.3942702667138178	0.001682666814645017	-0.01073880236407687	0.003489485144310578	0.01517719782197502	0.7923312124565978	0.05368940578400443	0.4127201670943169
2.55	-32.22730088029645	583.4368872586647	-34.08113144666419	4.550624756246692	2.668533630941879	24.65594723877091	0.7751718348890924	0.05368940578400443	0.5710353321902191	0.2507558629086596	0.4576968722071229	-0.005716906294779278	-0.01107983746848573	0.00287262983190234	0.00593967697697062	0.8044374026459966	0.05368940578400443	0.4117732579087501
2.555	-30.27533540137792	585.1669948657971	-33.24180326533008	4.576834311848375	2.686623745112841	25.31889783181626	0.76939274109637	0.05368940578400443	0.5709224088770917	0.218656361718183	0.5140847141894369	-0.01175464841950813	-0.01109972919247171	0.002226086312802245	-0.003609722838303298	0.8166331363813606	0.05368940578400443	0.4107579167381316
2.56	-28.32965573104727	587.548293135605	-32.46244105969522	4.611244825132283	2.693334999417486	25.92144162344996	0.7636196365617322	0.05368940578400443	0.5708120506032588	0.1852600361730802	0.5644468451548619	-0.01626177075124957	-0.01086887891582911	0.001595627571210956	-0.01312248375380587	0.8289059082390741	0.05368940578400443	0.409679638409305
2.565	-26.37905302906508	590.5181670259124	-31.7471651199835	4.652826327544332	2.690098039734262	26.47099218158727	0.7578520768381194	0.05368940578400443	0.5707055407617027	0.1510364161516294	0.6087584239928105	-0.01906137684674292	-0.01043759089259155	0.001025575961338232	-0.0222123818502622	0.8412408764116189	0.05368940578400443	0.4085445854333986
2.57	-24.41211301657376	594.0135208671485	-31.09956509716699	4.700691175065119	2.678285231776473	26.97455267267226	0.7520897102076456	0.05368940578400443	0.5706041331254549	0.1163260213504845	0.6459243849540712	-0.01996241672573262	-0.009836814654250015	0.0005594608292915915	-0.0304462719348656	0.8536206976221148	0.05368940578400443	0.4073594961773397
2.575	-22.41737917206367	597.9718544672102	-30.52269095867925	4.754129877270468	2.659179914041446	27.43865261344539	0.7463322881517058	0.05368940578400443	0.5705090284290577	0.08137441490644237	0.6737546625065534	-0.01875579981231112	-0.009079157977630148	0.0002406029389905862	-0.03733543580050924	0.8660254160647785	0.05368940578400443	0.406131585861141
2.58	-20.38351137676417	602.3321949622364	-30.01904001647641	4.812640749319264	2.633950449805108	27.86929806654594	0.7405796732045427	0.05368940578400443	0.5704213525488414	0.04636729253056004	0.6889480826264389	-0.0152129416972322	-0.008160123739386238	0.0001125693853537557	-0.0423280240984909	0.8784324126055351	0.05368940578400443	0.4048684440136829
2.585	-18.29943537588381	607.0358716689748	-29.59053949603401	4.87595278569789	2.603629466430369	28.27193410960173	0.7348318441474564	0.05368940578400443	0.5703421367289653	0.01146634486021303	0.6870874822639621	-0.009087033514450837	-0.007059547864585847	0.0002194434486450514	-0.04480319596834537	0.8908164192826095	0.05368940578400443	0.4035779320730916
2.59	-16.15447941954082	612.0271259917748	-29.23852480522804	4.944041340628979	2.569098484397319	28.65141841093367	0.7290888985723749	0.05368940578400443	0.5702723002389322	-0.02315431173462423	0.6626500927670804	-0.0001173381979953092	-0.005743237998789619	0.00060585406507635	-0.04406764426112852	0.9031496026602028	0.05368940578400443	0.4022680847239993
2.595	-13.93849582990127	617.2535529330456	-28.96371417889044	5.017136375512576	2.531077942298857	29.01200479374697	0.7233510529161876	0.05368940578400443	0.5702126357821818	-0.05727132929838619	0.6090387025100199	0.01196316897361882	-0.004164833218788244	0.001316709527275639	-0.03935528514200648	0.9154017178327369	0.05368940578400443	0.4009470183085838
2.6	-11.64196680985552	622.6663748188561	-28.76618071653459	5.095723195105625	2.490122429430115	29.3573357461532	0.7176186401393048	0.05368940578400443	0.5701637979056634	-0.09057517223122979	0.518640564612781	0.02741648965621479	-0.002267923705634001	0.00239657985509556	-0.02983098485523561	0.927540332897804	0.05368940578400443	0.3996228492183846
2.605	-9.256095335560394	628.2205514063971	-28.6453230362426	5.180535738884373	2.446620758584964	29.69044292080156	0.7118921052914885	0.05368940578400443	0.5701262945879043	-0.1226333069603889	0.3829223978032132	0.04648429379756891	1.151455883641184e-05	0.003888672181624753	-0.01459928836811053	0.939531121577416	0.05368940578400443	0.3983036245623274
2.61	-6.772883247919465	633.8747335677728	-28.59983589489142	5.272542620533514	2.400800361989962	30.01375475256837	0.7061719992733013	0.05368940578400443	0.570100482108527	-0.1528539458922069	0.192571111420591	0.06936829467195693	0.002742301722107765	0.005833343923696332	0.007280800403360876	0.9513382194495494	0.05368940578400443	0.3969972666185613
2.615	-4.185199517795057	639.5910702728181	-28.6276822287848	5.372926215878463	2.352735384102839	30.32911039587204	0.7004589711607683	0.05368940578400443	0.5700865632257078	-0.1804509127321472	-0.06230896202174563	0.09620601666460971	0.005994774217213061	0.008266100118359432	0.03677386436957786	0.962924637053271	0.05368940578400443	0.3957115316324533
2.62	-1.486842021649466	645.3348806856607	-28.72606818653636	5.483055187701797	2.302357783523889	30.63777923771264	0.6947537595124185	0.05368940578400443	0.5700845886098874	-0.2044104028955733	-0.3919305705165925	0.1270417174556435	0.009836958414752406	0.01121502481351228	0.07483776923840746	0.9742527210618762	0.05368940578400443	0.3944539824549466
2.625	1.327403978279618	651.0742049311152	-28.8914228699899	5.604450905484988	2.249470745419648	30.94048527413208	0.6890571831202612	0.05368940578400443	0.5700944614023489	-0.2234606667789019	-0.806477303011377	0.1617923102871366	0.01433011102929638	0.0146976025055893	0.1223838088413691	0.9852846528873869	0.05368940578400443	0.3932319733814415
2.63	4.261708034868129	656.7792485720181	-29.11938465489629	5.738748270878243	2.19376374421173	31.2374356448634	0.6833701316981963	0.05368940578400443	0.5701159446865317	-0.2360459427761719	-1.315663740269031	0.2002082537688885	0.01952354253895527	0.01871689507502633	0.1802261129816373	0.9959829725802902	0.05368940578400443	0.3920526444312709
